<svg xmlns="http://www.w3.org/2000/svg" viewBox="0 0 1600 900" fill="none">
  <defs>
    <linearGradient id="g" x1="0" y1="0" x2="1" y2="1">
      <stop offset="0%" stop-color="#3dffb5" stop-opacity="0.35"/>
      <stop offset="55%" stop-color="#0b1714" stop-opacity="0.1"/>
      <stop offset="100%" stop-color="#ff7a45" stop-opacity="0.28"/>
    </linearGradient>
    <radialGradient id="r" cx="70%" cy="35%" r="50%">
      <stop offset="0%" stop-color="#3dffb5" stop-opacity="0.45"/>
      <stop offset="100%" stop-color="#071018" stop-opacity="0"/>
    </radialGradient>
  </defs>
  <rect width="1600" height="900" fill="#071018"/>
  <rect width="1600" height="900" fill="url(#r)"/>
  <path d="M0 620 C280 520 420 780 720 640 C980 520 1180 700 1600 560 L1600 900 L0 900 Z" fill="url(#g)" opacity="0.7"/>
  <g opacity="0.55" stroke="#3dffb5" stroke-width="1.2">
    <path d="M180 180h220v140H180z"/>
    <path d="M520 120h180v90H520z"/>
    <path d="M980 210h260v120H980z"/>
    <path d="M1260 420h180v160h-180z"/>
    <path d="M180 180 L520 165"/>
    <path d="M700 165 L980 250"/>
    <path d="M1240 270 L1350 420"/>
  </g>
  <circle cx="1180" cy="280" r="6" fill="#3dffb5"/>
  <circle cx="700" cy="165" r="5" fill="#ff7a45"/>
  <circle cx="320" cy="250" r="4" fill="#ffffff" opacity="0.8"/>
</svg>
